HIERARCHY
ROOT Pelvis
{
	OFFSET 0.000000 0.000000 0.000000
	CHANNELS 6 Xposition Yposition Zposition Xrotation Yrotation Zrotation
	JOINT LeftUpLeg_virtual
	{
		OFFSET 0.000000 0.000000 0.000000
		CHANNELS 3 Xrotation Yrotation Zrotation
		JOINT LeftUpLeg
		{
			OFFSET 18.735201 -5.666702 -4.541200
			CHANNELS 3 Xrotation Yrotation Zrotation
			JOINT LeftLeg
			{
				OFFSET -0.021200 -31.938179 0.493100
				CHANNELS 3 Xrotation Yrotation Zrotation
				JOINT LeftFoot
				{
					OFFSET 0.021200 -31.938179 -4.336299
					CHANNELS 3 Xrotation Yrotation Zrotation
					JOINT LeftToeBase
					{
						OFFSET 0.943001 -26.722000 15.023500
						CHANNELS 3 Xrotation Yrotation Zrotation
						End Site
						{
							OFFSET 0 0 0
						}
					}
				}
			}
		}
	}
	JOINT RightUpLeg_virtual
	{
		OFFSET 0.000000 0.000000 0.000000
		CHANNELS 3 Xrotation Yrotation Zrotation
		JOINT RightUpLeg
		{
			OFFSET -18.735201 -5.666702 -4.541200
			CHANNELS 3 Xrotation Yrotation Zrotation
			JOINT RightLeg
			{
				OFFSET 0.018946 -31.938133 0.493100
				CHANNELS 3 Xrotation Yrotation Zrotation
				JOINT RightFoot
				{
					OFFSET -0.018946 -31.938126 -4.336299
					CHANNELS 3 Xrotation Yrotation Zrotation
					JOINT RightToeBase
					{
						OFFSET -0.943001 -26.722004 15.023500
						CHANNELS 3 Xrotation Yrotation Zrotation
						End Site
						{
							OFFSET 0 0 0
						}
					}
				}
			}
		}
	}
	JOINT Hips_virtual
	{
		OFFSET 0.000000 0.000000 0.000000
		CHANNELS 3 Xrotation Yrotation Zrotation
		JOINT Hips
		{
			OFFSET -0.000000 -0.000000 -0.000000
			CHANNELS 3 Xrotation Yrotation Zrotation
			JOINT Spine
			{
				OFFSET 0.000000 10.199997 -0.299500
				CHANNELS 3 Xrotation Yrotation Zrotation
				JOINT Spine1
				{
					OFFSET 0.000000 11.900002 -1.516600
					CHANNELS 3 Xrotation Yrotation Zrotation
					JOINT Spine2
					{
						OFFSET 0.000000 13.600006 -2.842500
						CHANNELS 3 Xrotation Yrotation Zrotation
						JOINT Neck_virtual
						{
							OFFSET 0.000000 0.000000 0.000000
							CHANNELS 3 Xrotation Yrotation Zrotation
							JOINT Neck
							{
								OFFSET 0.000000 9.624100 -2.890100
								CHANNELS 3 Xrotation Yrotation Zrotation
								JOINT Head
								{
									OFFSET 0.000000 14.068802 -1.351900
									CHANNELS 3 Xrotation Yrotation Zrotation
									End Site
									{
										OFFSET 0 0 0
									}
								}
							}
						}
						JOINT LeftShoulder_virtual
						{
							OFFSET 0.000000 0.000000 0.000000
							CHANNELS 3 Xrotation Yrotation Zrotation
							JOINT LeftShoulder
							{
								OFFSET 15.263000 10.923401 -0.547700
								CHANNELS 3 Xrotation Yrotation Zrotation
								JOINT LeftArm
								{
									OFFSET 25.438599 -2.830597 -13.032500
									CHANNELS 3 Xrotation Yrotation Zrotation
									JOINT LeftForeArm
									{
										OFFSET 29.960503 0.000000 0.000000
										CHANNELS 3 Xrotation Yrotation Zrotation
										JOINT LeftHand
										{
											OFFSET 27.849251 0.000000 0.000000
											CHANNELS 3 Xrotation Yrotation Zrotation
											End Site
											{
												OFFSET 0 0 0
											}
										}
									}
								}
							}
						}
						JOINT RightShoulder_virtual
						{
							OFFSET 0.000000 0.000000 0.000000
							CHANNELS 3 Xrotation Yrotation Zrotation
							JOINT RightShoulder
							{
								OFFSET -15.263000 10.923401 -0.547700
								CHANNELS 3 Xrotation Yrotation Zrotation
								JOINT RightArm
								{
									OFFSET -25.438599 -2.830597 -13.032500
									CHANNELS 3 Xrotation Yrotation Zrotation
									JOINT RightForeArm
									{
										OFFSET -29.960503 0.000000 0.000000
										CHANNELS 3 Xrotation Yrotation Zrotation
										JOINT RightHand
										{
											OFFSET -27.849251 0.000000 0.000000
											CHANNELS 3 Xrotation Yrotation Zrotation
											End Site
											{
												OFFSET 0 0 0
											}
										}
									}
								}
							}
						}
					}
				}
			}
		}
	}
}
MOTION
Frames: 5
Frame Time: 0.03333333
-0.101321 35.901695 -1.723427 0.000000 0.000000 0.000000 72.665501 -1.731055 -1.376524 3.969968 11.459331 1.202148 5.265299 4.987788 1.843117 -34.025885 0.645744 -1.482442 0.000000 0.000000 0.000000 72.665501 -1.731055 -1.376524 -6.043714 -7.641225 -1.589769 18.473061 2.671496 -1.317657 -28.073744 -0.159187 0.430166 0.000000 0.000000 0.000000 72.665501 -1.731055 -1.376524 0.000001 0.000000 0.000000 0.752803 -0.197005 0.598990 1.989908 -0.361037 0.703952 0.000000 0.000000 0.000000 1.989547 -0.369635 0.705793 -3.686016 -0.218883 1.279882 0.000000 0.000000 0.000000 1.989547 -0.369635 0.705793 1.107189 -1.022676 0.366517 -53.198144 -52.390160 -60.733776 0.000000 -9.465337 -0.000005 0.000000 0.000000 0.000000 1.989547 -0.369635 0.705793 1.721912 3.722435 14.170255 -57.853000 62.510390 58.216387 -0.000000 10.622203 0.000003 0.000000 0.000000 0.000000 
-0.114932 35.939903 -1.746132 0.000000 0.000000 0.000000 72.692508 -1.737664 -1.380221 3.962310 11.449792 1.194857 5.177801 5.049050 1.851500 -34.027545 0.643629 -1.476163 0.000000 0.000000 0.000000 72.692508 -1.737664 -1.380221 -6.081665 -7.635252 -1.562238 18.448566 2.629462 -1.308036 -28.078056 -0.151049 0.403679 0.000000 0.000000 0.000000 72.692508 -1.737664 -1.380221 0.000000 0.000000 0.000000 0.764261 -0.194301 0.595372 2.014336 -0.356035 0.696149 0.000000 0.000000 0.000000 2.017245 -0.364457 0.698350 -3.693159 -0.219911 1.282152 0.000000 0.000000 0.000000 2.017245 -0.364457 0.698350 1.106198 -1.019218 0.444195 -53.325794 -52.446024 -60.786163 -0.000010 -9.373373 -0.000007 0.000000 0.000000 0.000000 2.017245 -0.364457 0.698350 1.692441 3.818571 14.166780 -57.419071 62.383021 57.737693 0.000008 11.015440 0.000009 0.000000 0.000000 0.000000 
-0.130370 35.983429 -1.769051 0.000000 0.000000 0.000000 72.721905 -1.736811 -1.383094 3.984769 11.431507 1.176158 5.012469 5.112650 1.875545 -33.989135 0.640310 -1.471355 0.000000 0.000000 0.000000 72.721905 -1.736811 -1.383094 -6.120732 -7.622021 -1.532146 18.415254 2.580192 -1.301944 -28.073403 -0.144176 0.381338 0.000000 0.000000 0.000000 72.721905 -1.736811 -1.383094 -0.000001 0.000000 0.000000 0.779468 -0.192374 0.588896 2.046994 -0.353058 0.686805 0.000000 0.000000 0.000000 2.059590 -0.360989 0.690020 -3.698465 -0.220799 1.284685 0.000000 0.000000 0.000000 2.059590 -0.360989 0.690020 1.109402 -1.047178 0.617680 -53.300187 -52.427241 -60.726092 0.000000 -9.495818 0.000004 0.000000 0.000000 0.000000 2.059590 -0.360989 0.690020 1.608448 4.068152 14.154881 -56.074750 61.951646 56.389195 0.000002 12.166842 0.000001 0.000000 0.000000 0.000000 
-0.147799 36.031590 -1.793449 0.000000 0.000000 0.000000 72.754492 -1.729421 -1.381066 4.037521 11.401899 1.143869 4.769727 5.174805 1.913855 -33.910824 0.637284 -1.472413 0.000000 0.000000 0.000000 72.754492 -1.729421 -1.381066 -6.170574 -7.602124 -1.504893 18.389432 2.527601 -1.301537 -28.068220 -0.139106 0.364774 0.000000 0.000000 0.000000 72.754492 -1.729421 -1.381066 0.000000 0.000000 0.000000 0.797378 -0.191629 0.579761 2.085609 -0.352767 0.674648 0.000000 0.000000 0.000000 2.114160 -0.359899 0.679518 -3.701515 -0.221372 1.286711 0.000000 0.000000 0.000000 2.114160 -0.359899 0.679518 1.118095 -1.112103 0.871085 -53.079668 -52.340344 -60.509213 0.000002 -9.849032 0.000009 0.000000 0.000000 0.000000 2.114160 -0.359899 0.679518 1.474310 4.460581 14.127444 -54.128044 61.266517 54.462614 -0.000001 13.832708 -0.000010 0.000000 0.000000 0.000000 
-0.167221 36.083241 -1.820526 0.000000 0.000000 0.000000 72.788998 -1.718355 -1.371672 4.127620 11.364058 1.097776 4.443074 5.227093 1.961764 -33.791630 0.635462 -1.482904 0.000000 0.000000 0.000000 72.788998 -1.718355 -1.371672 -6.234618 -7.580130 -1.485609 18.380973 2.479011 -1.304654 -28.070305 -0.135233 0.352106 0.000000 0.000000 0.000000 72.788998 -1.718355 -1.371672 -0.000002 0.000000 0.000000 0.817147 -0.192044 0.568528 2.128596 -0.354853 0.658856 0.000000 0.000000 0.000000 2.179328 -0.360895 0.666010 -3.702080 -0.221815 1.287512 0.000000 0.000000 0.000000 2.179328 -0.360895 0.666010 1.132607 -1.210562 1.194274 -52.684463 -52.210564 -60.149747 -0.000008 -10.381172 0.000006 0.000000 0.000000 0.000000 2.179328 -0.360895 0.666010 1.294704 4.985076 14.076854 -51.857320 60.370560 52.223971 0.000002 15.798716 -0.000015 0.000000 0.000000 0.000000 
